<svg width="1117" height="633" viewBox="0 0 1117 633" fill="none" xmlns="http://www.w3.org/2000/svg">
<ellipse cx="253.897" cy="533.181" rx="30.2681" ry="29.7876" fill="#00AE99" fill-opacity="0.05"/>
<ellipse cx="963.035" cy="181.495" rx="30.2681" ry="29.7876" fill="#00AE99" fill-opacity="0.05"/>
<circle cx="37.697" cy="518.287" r="36.9943" fill="#00AE99" fill-opacity="0.05"/>
<circle cx="847.728" cy="436.611" r="36.9943" fill="#00AE99" fill-opacity="0.05"/>
<circle cx="836.197" cy="53.2158" r="36.9943" fill="#00AE99" fill-opacity="0.05"/>
<ellipse cx="605.103" cy="563.449" rx="53.8099" ry="53.3295" fill="#00AE99" fill-opacity="0.05"/>
<ellipse cx="230.356" cy="101.26" rx="53.8099" ry="53.3295" fill="#00AE99" fill-opacity="0.05"/>
<path d="M1112.8 540.868C1112.8 551.07 1104.33 559.469 1093.72 559.469C1083.11 559.469 1074.64 551.07 1074.64 540.868C1074.64 530.666 1083.11 522.268 1093.72 522.268C1104.33 522.268 1112.8 530.666 1112.8 540.868Z" stroke="#00AE99" stroke-opacity="0.05" stroke-width="7"/>
<path d="M387.324 409.226C387.324 419.428 378.853 427.826 368.244 427.826C357.634 427.826 349.163 419.428 349.163 409.226C349.163 399.024 357.634 390.625 368.244 390.625C378.853 390.625 387.324 399.024 387.324 409.226Z" stroke="#00AE99" stroke-opacity="0.05" stroke-width="7"/>
<path d="M84.6437 173.808C84.6437 184.01 76.1722 192.408 65.5628 192.408C54.9533 192.408 46.4818 184.01 46.4818 173.808C46.4818 163.605 54.9533 155.207 65.5628 155.207C76.1722 155.207 84.6437 163.605 84.6437 173.808Z" stroke="#00AE99" stroke-opacity="0.05" stroke-width="7"/>
<path d="M421.917 51.7744C421.917 61.9766 413.445 70.3749 402.836 70.3749C392.226 70.3749 383.755 61.9766 383.755 51.7744C383.755 41.5722 392.226 33.1739 402.836 33.1739C413.445 33.1739 421.917 41.5722 421.917 51.7744Z" stroke="#00AE99" stroke-opacity="0.05" stroke-width="7"/>
<circle cx="368.724" cy="614.857" r="17.296" fill="#00AE99" fill-opacity="0.05"/>
<circle cx="1025.97" cy="409.226" r="17.296" fill="#00AE99" fill-opacity="0.05"/>
<circle cx="630.087" cy="18.1433" r="17.296" fill="#00AE99" fill-opacity="0.05"/>
<path d="M865.552 555.426L917.047 570.415L877.15 588.961L852.389 599.993L865.552 555.426Z" fill="#00AE99" fill-opacity="0.05"/>
<path d="M230.657 275.747L215.236 327.114L197.026 287.063L186.202 262.21L230.657 275.747Z" fill="#00AE99" fill-opacity="0.05"/>
<path d="M887.622 302.085L839.1 279.237L881.405 267.15L907.585 260.121L887.622 302.085Z" fill="#00AE99" fill-opacity="0.05"/>
</svg>
